<?xml version="1.0" encoding="utf-8"?>
<!-- Generator: Adobe Illustrator 22.0.0, SVG Export Plug-In . SVG Version: 6.00 Build 0)  -->
<svg version="1.1" id="图层_1" xmlns="http://www.w3.org/2000/svg" xmlns:xlink="http://www.w3.org/1999/xlink" x="0px" y="0px"
	 viewBox="0 0 54 15.1" style="enable-background:new 0 0 54 15.1;" xml:space="preserve">
<style type="text/css">
	.st0{fill:#444444;}
	.st1{fill:#FFFFFF;}
</style>
<path class="st0" d="M46.4,15.1H7.6C3.4,15.1,0,11.7,0,7.6v0C0,3.4,3.4,0,7.6,0l38.9,0C50.6,0,54,3.4,54,7.6v0
	C54,11.7,50.6,15.1,46.4,15.1z"/>
<g>
	<path class="st1" d="M29.2,6.3v0.9h-0.3V6.5h-2.8v0.6h-0.3V6.3h1.6c-0.1-0.1-0.1-0.3-0.2-0.4l0.3-0.1c0.1,0.1,0.1,0.3,0.2,0.4
		C27.7,6.3,29.2,6.3,29.2,6.3z M25.7,7.4h1.2c0.1-0.2,0.2-0.4,0.4-0.7l0.3,0.1c-0.1,0.2-0.2,0.4-0.3,0.6h2.1v0.3h-0.8
		c-0.2,0.4-0.4,0.8-0.6,1c0.4,0.2,0.9,0.4,1.3,0.6L29,9.6c-0.4-0.2-0.9-0.5-1.3-0.7c-0.5,0.4-1.1,0.6-1.8,0.6l-0.2-0.3
		c0.7,0,1.3-0.2,1.7-0.5c-0.4-0.2-0.8-0.3-1.2-0.4c0.1-0.2,0.3-0.5,0.4-0.7h-1C25.7,7.7,25.7,7.4,25.7,7.4z M27,7.7
		c-0.1,0.2-0.2,0.4-0.3,0.6c0.3,0.1,0.6,0.2,1,0.3c0.2-0.2,0.4-0.5,0.5-0.9H27z M31.4,5.9h0.3v0.3h1.5v0.3h-1.5v0.3H33v1.5h-1.2v0.4
		h1.6v0.3h-1.6v0.7h-0.3V8.9h-1.6V8.6h1.6V8.2h-1.1V6.7h1.1L31.4,5.9L31.4,5.9z M32.7,8V7.6h-2.1V8H32.7z M30.6,7.3h2.1V7h-2.1V7.3z
		 M34.9,5.9h0.3V7h0.2v0.3h-1v0.2c0,0.1,0,0.2,0,0.4h0.8v1.7h-0.3V8.1h-0.5c0,0.6-0.2,1.1-0.3,1.4l-0.2-0.2c0.2-0.4,0.3-1,0.3-1.9V6
		h0.3v1h0.4C34.9,7,34.9,5.9,34.9,5.9z M35.9,7.3v0.5c0,0.8-0.2,1.4-0.4,1.8l-0.2-0.2c0.2-0.4,0.3-0.9,0.3-1.6V6.1
		c0.6,0,1.2-0.1,1.8-0.3l0.1,0.3c-0.5,0.1-1,0.2-1.6,0.2V7h1.5v0.2c-0.1,0.6-0.3,1-0.5,1.4c0.2,0.3,0.4,0.5,0.7,0.6l-0.1,0.3
		c-0.3-0.2-0.6-0.4-0.8-0.6c-0.2,0.3-0.5,0.5-0.8,0.6l-0.1-0.3c0.3-0.2,0.6-0.4,0.8-0.6c-0.2-0.4-0.4-0.8-0.5-1.4
		C36.1,7.3,35.9,7.3,35.9,7.3z M36.3,7.3c0.1,0.4,0.2,0.8,0.4,1.1c0.2-0.3,0.4-0.7,0.4-1.1L36.3,7.3L36.3,7.3z"/>
	<path class="st1" d="M20.2,5.6V5.3h-0.3v0.2H20.2z M18.6,5.6V5.3h-0.3v0.2H18.6z M20.4,4.7c0.5,0.3,0.7,0.8,0.7,1.4h-3.6
		c0-0.6,0.2-1,0.7-1.4L18,4.3c-0.1-0.1-0.1-0.1,0-0.2c0.1-0.1,0.1-0.1,0.2,0l0.4,0.4c0.2-0.1,0.5-0.2,0.8-0.2c0.3,0,0.5,0.1,0.8,0.2
		l0.4-0.4c0.1-0.1,0.1-0.1,0.2,0c0.1,0.1,0.1,0.1,0,0.2C20.8,4.3,20.4,4.7,20.4,4.7z M21.8,6.3c0.1,0,0.2,0,0.3,0.1
		c0.1,0.1,0.1,0.2,0.1,0.3v2.1c0,0.1,0,0.2-0.1,0.3s-0.2,0.1-0.3,0.1c-0.1,0-0.2,0-0.3-0.1c-0.1-0.1-0.1-0.2-0.1-0.3V6.8
		c0-0.1,0-0.2,0.1-0.3C21.6,6.4,21.7,6.3,21.8,6.3z M16.7,6.3c0.1,0,0.2,0,0.3,0.1c0.1,0.1,0.1,0.2,0.1,0.3v2.1c0,0.1,0,0.2-0.1,0.3
		c-0.1,0.1-0.2,0.1-0.3,0.1c-0.1,0-0.2,0-0.3-0.1c-0.1-0.1-0.1-0.2-0.1-0.3V6.8c0-0.1,0-0.2,0.1-0.3C16.5,6.4,16.6,6.3,16.7,6.3z
		 M17.6,9.3v-3h3.6v3c0,0.2-0.1,0.3-0.3,0.3c0,0,0,0,0,0h-0.3v1c0,0.1,0,0.2-0.1,0.3c-0.1,0.1-0.2,0.1-0.3,0.1c-0.1,0-0.2,0-0.3-0.1
		c-0.1-0.1-0.1-0.2-0.1-0.3v-1h-0.6v1c0,0.1,0,0.2-0.1,0.3c-0.1,0.1-0.2,0.1-0.3,0.1c-0.1,0-0.2,0-0.3-0.1c-0.1-0.1-0.1-0.2-0.1-0.3
		v-1h-0.3C17.8,9.6,17.6,9.5,17.6,9.3C17.6,9.3,17.6,9.3,17.6,9.3L17.6,9.3L17.6,9.3z"/>
</g>
</svg>
