<?xml version="1.0" encoding="utf-8"?>
<!-- Generator: Adobe Illustrator 22.0.0, SVG Export Plug-In . SVG Version: 6.00 Build 0)  -->
<svg version="1.1" id="图层_1" xmlns="http://www.w3.org/2000/svg" xmlns:xlink="http://www.w3.org/1999/xlink" x="0px" y="0px"
	 viewBox="0 0 54 15.1" style="enable-background:new 0 0 54 15.1;" xml:space="preserve">
<style type="text/css">
	.st0{fill:#444444;}
	.st1{fill:#FFFFFF;}
</style>
<path class="st0" d="M46.4,15.1H7.6C3.4,15.1,0,11.7,0,7.6v0C0,3.4,3.4,0,7.6,0l38.9,0C50.6,0,54,3.4,54,7.6v0
	C54,11.7,50.6,15.1,46.4,15.1z"/>
<g>
	<path class="st1" d="M21.5,7.8c0-0.9,0.7-1.3,0.8-1.3c-0.4-0.6-1.1-0.7-1.3-0.7c-0.6-0.1-1.1,0.3-1.4,0.3c-0.3,0-0.7-0.3-1.2-0.3
		c-0.6,0-1.2,0.3-1.5,0.9c-0.6,1.1-0.2,2.6,0.4,3.5c0.3,0.4,0.7,0.9,1.1,0.9c0.5,0,0.6-0.3,1.2-0.3c0.5,0,0.7,0.3,1.2,0.3
		c0.5,0,0.8-0.4,1.1-0.8c0.4-0.5,0.5-1,0.5-1C22.5,9.2,21.5,8.9,21.5,7.8z M20.7,5.1c0.2-0.3,0.4-0.6,0.4-1c-0.4,0-0.8,0.2-1.1,0.5
		c-0.2,0.2-0.4,0.6-0.4,1C20,5.6,20.4,5.3,20.7,5.1z"/>
	<path class="st1" d="M25.7,6.2h0.4v3h-0.4V6.2z M28,6.1c0.5,0,0.9,0.2,1.1,0.5c0.2,0.3,0.3,0.6,0.3,1c0,0.4-0.1,0.8-0.3,1.1
		c-0.3,0.3-0.6,0.5-1.1,0.5c-0.4,0-0.8-0.2-1.1-0.5c-0.2-0.3-0.3-0.7-0.3-1.1c0-0.4,0.1-0.8,0.3-1C27.1,6.3,27.5,6.1,28,6.1z
		 M28,8.9c0.3,0,0.6-0.1,0.8-0.4C29,8.3,29,8,29,7.6c0-0.4-0.1-0.6-0.3-0.8S28.3,6.5,28,6.5c-0.3,0-0.5,0.1-0.7,0.3
		C27.1,7,27,7.3,27,7.7c0,0.3,0.1,0.6,0.2,0.8S27.7,8.9,28,8.9z M30.2,8.2c0,0.2,0,0.3,0.1,0.4c0.1,0.2,0.4,0.3,0.7,0.3
		c0.1,0,0.3,0,0.4-0.1c0.2-0.1,0.4-0.2,0.4-0.5c0-0.2,0-0.3-0.1-0.3c-0.1-0.1-0.3-0.1-0.5-0.2l-0.4-0.1c-0.3-0.1-0.4-0.1-0.5-0.2
		C30,7.5,29.9,7.3,29.9,7c0-0.3,0.1-0.5,0.3-0.7c0.2-0.2,0.4-0.3,0.8-0.3c0.3,0,0.6,0.1,0.8,0.2C31.9,6.5,32,6.7,32,7.1h-0.4
		c0-0.2-0.1-0.3-0.1-0.4c-0.1-0.2-0.3-0.2-0.6-0.2c-0.2,0-0.4,0.1-0.5,0.2S30.3,6.8,30.3,7c0,0.1,0.1,0.3,0.2,0.3
		c0.1,0,0.3,0.1,0.5,0.2l0.4,0.1c0.2,0,0.3,0.1,0.5,0.2c0.2,0.1,0.3,0.3,0.3,0.6c0,0.3-0.1,0.6-0.4,0.7c-0.2,0.1-0.5,0.2-0.8,0.2
		c-0.4,0-0.6-0.1-0.9-0.3c-0.2-0.2-0.3-0.4-0.3-0.8C29.8,8.2,30.2,8.2,30.2,8.2z M34.6,5.8h0.3v1.1h0.2v0.3h-1v0.2
		c0,0.1,0,0.3,0,0.4H35v1.8h-0.3V8.1h-0.5c0,0.6-0.2,1.1-0.3,1.4l-0.2-0.2c0.2-0.4,0.3-1,0.3-1.9V5.9h0.3v1h0.4L34.6,5.8L34.6,5.8z
		 M35.7,7.3v0.5c0,0.8-0.2,1.4-0.4,1.9l-0.2-0.2c0.2-0.4,0.3-0.9,0.3-1.6V6.1c0.6,0,1.2-0.1,1.7-0.3l0.1,0.3c-0.5,0.1-1,0.2-1.6,0.2
		V7h1.5v0.3c-0.1,0.6-0.3,1.1-0.5,1.5c0.2,0.3,0.4,0.5,0.7,0.6l-0.1,0.3c-0.3-0.2-0.6-0.4-0.8-0.7c-0.2,0.3-0.5,0.5-0.8,0.7
		l-0.1-0.3c0.3-0.2,0.6-0.4,0.8-0.6c-0.2-0.4-0.4-0.9-0.5-1.4H35.7L35.7,7.3z M36.1,7.3c0.1,0.5,0.2,0.8,0.4,1.2
		c0.2-0.3,0.3-0.7,0.4-1.2C36.9,7.3,36.1,7.3,36.1,7.3z"/>
</g>
</svg>
